<?xml version="1.0" encoding="utf-8"?>
<!-- Generator: Adobe Illustrator 19.2.1, SVG Export Plug-In . SVG Version: 6.00 Build 0)  -->
<svg version="1.1" id="Layer_1" xmlns="http://www.w3.org/2000/svg" xmlns:xlink="http://www.w3.org/1999/xlink" x="0px" y="0px"
	 viewBox="0 0 258.5 55" style="enable-background:new 0 0 258.5 55;" xml:space="preserve">
<style type="text/css">
	.st0{fill:#003676;}
</style>
<g>
	<path class="st0" d="M69.3,50.6l0-10.7v-4.8c0-3.9-0.2-7.6-3.6-10.7c-2.2-2.2-4.5-3.1-7.6-3.1c-3,0-7.5,1.5-10.4,4.8V0.8h-9.4V3
		c0,0,3.1-0.5,3.1,2.8l0,44.8c0,1.4-4.2,2.1-4.2,2.1v1.6h4h0h6.6h0h4v-1.6c0,0-4.2-0.5-4.2-2.1V31.3c0.2-1.1,0.8-2.2,1.4-2.9
		c2.3-2.7,5.3-3.1,6.8-3.1c1.8,0,3.3,0.6,4.8,2c2,1.9,2.5,4.6,2.5,9.1v14.2c0,1.4-4.2,2.1-4.2,2.1v1.6h4h0h6.4h0h4v-1.6
		C73.5,52.7,69.3,52.2,69.3,50.6z"/>
	<path class="st0" d="M144.5,50.6V22.1c0,0-0.1-0.1-0.1-0.1h-9.3v2.2c0,0,3.1-0.3,3.1,2.9v23.5c0,1.4-4.2,2.1-4.2,2.1v1.6h4h0h6.6h0
		h4v-1.6C148.8,52.7,144.5,52.2,144.5,50.6z"/>
	<circle class="st0" cx="140.8" cy="11.9" r="3.7"/>
	<path class="st0" d="M182.8,48.3c-0.2-0.3-0.4-1.2-0.6-2.6V0.8h-9.4V3c0,0,3-0.3,3.1,2.8v16.6c-2.4-0.7-5.1-1-7.8-1
		c-4.5,0-8.5,1.7-11.4,4.8c-3.4,3.4-5.3,8.1-5.3,13c0,0-0.2,15.9,13.9,15.9c3.9,0,8.9-2.1,11.4-4.3l2.2,3.7L187,52v-1.5
		C183.5,50.5,182.8,48.3,182.8,48.3z M176,44.8c0,0.8-0.1,1.4-0.4,2.5c-0.7,1.9-3.9,4-8,4c-5.8,0-9.8-5.4-9.8-14.1
		c0-4.1,1-7.7,3.2-10.2c2.1-2.2,4.8-2.6,6.7-2.6c4.9,0,6.9,2.5,7.7,3.9c0.6,1.1,0.6,2.5,0.6,3.6V44.8z"/>
	<path class="st0" d="M215.1,49.3c-0.2-0.3-0.4-1.1-0.5-2.4l0-1.9V29.3c0-2.2-0.1-3.9-1.7-5.5c0,0-1.6-2.4-10-2.4
		c-3.6,0.1-8.2,1.7-10,4.6c-1.5,2.3-0.7,4.2,0.6,5.3c0.6,0.6,1.5,0.9,2.4,0.9c2,0,3.7-1.6,3.7-3.7c0-0.8-0.3-1.6-0.7-2.2
		c0.3-0.5,2.1-3.5,7-2.6c4.2,0.7,2.9,10.1,2.9,10.1c-1.8,0.6-15.2,4.8-17.3,10.3c-2.7,7.2,2.3,9.7,2.3,9.8c1.4,0.8,3,1.2,4.7,1.2
		c5.2,0,9.9-4,10.9-4.9c0.8,3,2.7,4.6,5.4,4.6v0l0,0c0,0,0.1,0,0.1,0v0l4.6-1.7v-1.5C215.8,51.4,215.1,49.3,215.1,49.3z M208.5,46.6
		c0,1.8-3.8,3.2-6,3.7c-0.5,0.1-1.1,0.2-1.6,0.2c-2.5,0-4.5-1.7-4.5-4c0-4.4,5.1-6.5,8.9-8.1c1.3-0.5,2.4-1,3.1-1.5L208.5,46.6
		L208.5,46.6z"/>
	<path class="st0" d="M126,21c-3.4,0-7.4,3.7-9.4,6.7l-1-5.8h-7.9v2.2c0,0,3.1-0.3,3.1,2.9v23.5c0,1.4-4.2,2.1-4.2,2.1v1.6h4h0h6.6
		h0h4v-1.6c0,0-4.2-0.5-4.2-2.1v-18c0-0.3,0.3-1.5,0.7-2.2c1.2-2.2,4.3-4.2,5.3-3.4c0.7,1.2,1.9,2,3.4,2c2.1,0,3.8-1.7,3.8-3.9
		c0-0.4-0.1-0.9-0.2-1.2C129.8,22.4,128.4,21,126,21z"/>
	<path class="st0" d="M21,23.6c-8.7-5.5-10.8-7.9-11.5-12C8.6,6.3,13,2.2,18.7,2.2c1.9,0,9.6,0.7,9.8,11.2h2.1V2.5
		C27.2,1.3,22.3,0,17.5,0C9.1,0,2.3,4.9,2.3,14c0,7.2,7.1,11.3,13.1,14.8c9.3,5.9,11,8.6,11.1,13c0,6.6-5,10.4-10.7,10.4
		c-2.5,0-4.8-0.8-6.6-2.2c-0.7-0.8,0.3-1.6,0.3-1.6c1-1.1,1.6-2.6,1.5-4.2c-0.2-3.1-2.9-5.4-5.9-5.1C2.1,39.3-0.2,41.9,0,45
		c0.1,0.9,0.3,1.7,0.7,2.4c3,4.8,8.9,7.6,15,7.6c9,0,17.6-5.7,17.6-15.5C33.4,31.8,27.4,27.4,21,23.6z"/>
	<path class="st0" d="M254.3,50.6l0-10.5v-4.8c0-3.9-0.5-7.6-3.8-10.7c-2.2-2.2-4.5-3.3-7.7-3.3c-3,0-7.5,1.7-10.4,5l-0.8-4.3h-8.6
		v2.2c0,0,3.1-0.4,3.1,3l0,23.4c0,1.4-4.2,2.1-4.2,2.1v1.6h4h0h6.6h0h4v-1.6c0,0-4.2-0.5-4.2-2.1V31.5c0.2-1.1,0.8-2.2,1.4-2.9
		c2.3-2.7,5.3-3.1,6.8-3.1c1.8,0,3.3,0.6,4.8,2c2,1.9,2.5,4.6,2.5,9.1v14c0,1.4-4.2,2.1-4.2,2.1v1.6h4h0h6.6h0h4v-1.6
		C258.5,52.7,254.3,52.2,254.3,50.6z"/>
	<path class="st0" d="M101.6,44.9l-0.1,0.3c-1.3,2.5-4.8,5-9.1,5c-5.9,0-10.2-5.5-10.2-12.7c0-1.5,0.1-2.7,0.2-3.4h20.3
		c0-12.5-10.2-12.8-12-12.8c-1.8,0-6.3,0.5-9.9,4.1c-4.2,4.2-5,9.4-5,12.1c0,5.5,0.9,8.3,3.5,12c3.3,4.7,8.9,5.5,12,5.5
		c6.2,0,10.5-4.5,12.2-8.4c0.1-0.2,0.1-0.3,0.2-0.5l0.1-0.2l-2-0.9L101.6,44.9z M90.4,24.1c4.8,0,6.4,5.1,6.4,6.4l0,0.8h-14
		C84.1,26.6,86.8,24.1,90.4,24.1z"/>
</g>
</svg>
