<svg id="Layer_1" data-name="Layer 1" xmlns="http://www.w3.org/2000/svg" viewBox="0 0 760.12 128.03"><defs><style>.cls-1{fill:#003767;}.cls-2{fill:#00afdb;}</style></defs><title>sheridan-logo-footer-2col</title><path class="cls-1" d="M147.28,349.65l0-20.28v-9.08c0-7.44-.45-14.48-6.76-20.37A19.2,19.2,0,0,0,126,294.08a28,28,0,0,0-19.71,9.14V255.29H88.56v4.16c0.06,0,5.87-.94,5.87,5.23v84.94c0,2.67-7.95,3.94-8,4v3.08h28v-3.08c-0.06,0-8-.93-8-3.93V313a12.8,12.8,0,0,1,2.6-5.54,16.94,16.94,0,0,1,12.89-5.82,12.59,12.59,0,0,1,9.08,3.86c3.83,3.56,4.78,8.78,4.78,17.18v27c0,2.67-8,3.94-8,4v3.08h27.5v-3.08C155.21,353.56,147.28,352.64,147.28,349.65Z" transform="translate(-15.94 -241.98)"/><path class="cls-1" d="M289.89,349.65V295.57a0.74,0.74,0,0,0-.16-0.2H272v4.16c0.06,0,5.9-.6,5.9,5.58v44.52c0,2.67-7.92,3.94-8,4v3.08h28v-3.08C297.89,353.56,289.89,352.64,289.89,349.65Z" transform="translate(-15.94 -241.98)"/><circle class="cls-1" cx="266.93" cy="34.23" r="7.1"/><path class="cls-1" d="M362.45,345.32c-0.46-.58-0.82-2.33-1-5V255.29H343.62v4.16c0.06,0,5.63-.55,5.85,5.23v31.38a54,54,0,0,0-14.79-2,29.05,29.05,0,0,0-21.59,9.13A34.53,34.53,0,0,0,303,327.8S302.66,358,329.26,358c7.36,0,17-4,21.62-8.18l4.11,7,15.37-4.48v-2.93C363.83,349.34,362.45,345.32,362.45,345.32Zm-13-6.68a12.82,12.82,0,0,1-.82,4.67c-1.39,3.62-7.48,7.57-15.08,7.53C322.6,350.77,315,340.58,315,324.16c0-7.77,1.82-14.68,6.08-19.27a17.19,17.19,0,0,1,12.62-5c9.29,0,13.1,4.66,14.54,7.45,1.22,2.17,1.22,4.81,1.22,6.75v24.53Z" transform="translate(-15.94 -241.98)"/><path class="cls-1" d="M423.64,347.09c-0.44-.55-0.78-2.16-1-4.58l-0.07-3.68V309.15c0-4.21-.24-7.43-3.29-10.48,0,0-3.08-4.57-19-4.57-6.82.27-15.46,3.25-19,8.72-2.84,4.45-1.36,7.88,1,10.07a7,7,0,0,0,10.12-9.46c0.48-.9,3.9-6.64,13.36-5,8,1.41,5.52,19.2,5.52,19.2-3.46,1.06-28.89,9.17-32.72,19.5-5,13.6,4.33,18.47,4.4,18.5a17.92,17.92,0,0,0,8.84,2.29c9.94,0,18.69-7.49,20.63-9.28,1.44,5.62,5.14,8.64,10.25,8.72v0l0.06,0h0.15v-0.06l8.63-3.29v-2.93C425,351.11,423.64,347.09,423.64,347.09ZM411.16,342c0,3.37-7.12,6-11.32,7.08a12.37,12.37,0,0,1-3,.38c-4.82,0-8.46-3.3-8.46-7.67,0-8.25,9.72-12.3,16.81-15.26a47.92,47.92,0,0,0,6-2.77V342Z" transform="translate(-15.94 -241.98)"/><path class="cls-1" d="M254.8,293.57c-6.49,0-14,7.1-17.9,12.7l-1.84-10.9h-15v4.16c0.06,0,5.9-.6,5.9,5.58v44.52c0,2.67-7.92,3.94-8,4v3.08h28v-3.08c-0.05,0-8-.93-8-3.93v-34.2a15.76,15.76,0,0,1,1.35-4.18c2.18-4.1,8.08-7.88,10-6.52a7.29,7.29,0,0,0,13.33-5.79C261.88,296.14,259.27,293.57,254.8,293.57Z" transform="translate(-15.94 -241.98)"/><path class="cls-1" d="M55.65,298.4c-16.47-10.46-20.41-15-21.74-22.8-1.71-10,6.65-17.71,17.47-17.71,3.55,0,18.19,1.35,18.52,21.21h4V258.48a74.42,74.42,0,0,0-24.71-4.77c-15.93,0-28.88,9.22-28.88,26.51,0,13.73,13.4,21.33,24.89,28.1,17.67,11.22,20.9,16.26,21,24.72,0,12.59-9.51,19.69-20.3,19.69a19.11,19.11,0,0,1-12.44-4.23c-1.26-1.47.64-3,.64-3A10.51,10.51,0,1,0,16,339a10.06,10.06,0,0,0,1.41,4.52c5.78,9.19,16.9,14.45,28.5,14.45,17.08,0,33.32-10.76,33.32-29.32C79.19,313.91,68,305.66,55.65,298.4Z" transform="translate(-15.94 -241.98)"/><path class="cls-1" d="M498,349.65l0-19.93v-9.08c0-7.44-.87-14.48-7.18-20.37-4.24-4.1-8.62-6.19-14.51-6.19-5.71,0-14.23,3.21-19.65,9.49l-1.55-8.2H438.85v4.16c0.06,0,5.87-.68,5.87,5.78v44.32c0,2.67-8,3.94-8,4v3.08h28v-3.08c-0.06,0-8-.93-8-3.93V313.33a12.81,12.81,0,0,1,2.6-5.54A16.93,16.93,0,0,1,472.19,302a12.6,12.6,0,0,1,9.08,3.86c3.82,3.56,4.78,8.78,4.78,17.18v26.61c0,2.67-7.95,3.94-8,4v3.08H506v-3.08C505.91,353.56,498,352.64,498,349.65Z" transform="translate(-15.94 -241.98)"/><path class="cls-1" d="M208.58,338.78l-0.28.48c-2.42,4.69-9.07,9.42-17.33,9.42-11.27,0-19.25-10.33-19.25-24a41.71,41.71,0,0,1,.34-6.35h38.47c0-23.64-19.31-24.23-22.67-24.23s-12,.88-18.69,7.7a33,33,0,0,0-9.39,23c0,10.37,1.75,15.71,6.62,22.81,6.16,9,16.93,10.34,22.79,10.34,11.81,0,19.84-8.53,23.12-15.83a7.73,7.73,0,0,0,.34-0.92l0.12-.41L209,339Zm-21.37-39.45c9.16,0,12.18,9.62,12.18,12.19l0,1.51H172.87C175.31,304.19,180.39,299.33,187.21,299.33Z" transform="translate(-15.94 -241.98)"/><rect class="cls-2" x="521.83" width="3.86" height="128.03"/><path class="cls-2" d="M602.21,278.07H590.57v-3.54h15.54v16.56s-4.32,7.44-15.48,7.44-17.76-8.76-17.76-21.48,6.84-21.48,18-21.48,14.34,8.7,14.34,8.7l-3.36,2.34c-0.66-1.92-3.18-7.56-11-7.56S577,264.93,577,277s6.06,18,13.74,18,10.92-4.44,11.46-5.16V278.07Z" transform="translate(-15.94 -241.98)"/><path class="cls-2" d="M637.59,291a12.84,12.84,0,0,1-11.94,7.56c-8.4,0-13-6.48-13-16s5.52-15.36,13-15.36,12.24,5.76,12.24,14.64v1.38H616.71v0.54c0,6.6,3.06,11.64,8.94,11.64s8.28-5,8.7-5.94Zm-3.72-11.28c0-4.92-2.7-9.42-8.22-9.42s-8.64,4.44-8.94,9.9h17.16v-0.48Z" transform="translate(-15.94 -241.98)"/><path class="cls-2" d="M657.9,297.27a10.62,10.62,0,0,1-5.34,1.26c-3.36,0-6.48-1.68-6.48-7V271.11h-5.64V268h5.64v-8.7l3.78-.9H650V268h7.56v3.06H650v20.22c0,3,1.44,3.78,3.48,3.78a7.51,7.51,0,0,0,3.48-.84h0.12Z" transform="translate(-15.94 -241.98)"/><path class="cls-2" d="M605.63,346.1a15.27,15.27,0,0,1-15.36,11.34c-11.64,0-17.4-9.72-17.4-21.48s6.18-21.48,17.58-21.48,14.4,9.24,14.76,11l-3.54,1.74a11.11,11.11,0,0,0-11.34-9.18c-8.16,0-13.26,7-13.26,17.88s5.16,17.88,13.32,17.88,11-6.36,11.7-9.48Z" transform="translate(-15.94 -241.98)"/><path class="cls-2" d="M612.37,356.6V327h3.78v6.36h0.12a10.79,10.79,0,0,1,2.7-5,6.83,6.83,0,0,1,5.16-2,8.94,8.94,0,0,1,4.08,1l-0.72,3.6h-0.12A5.93,5.93,0,0,0,624,330a5.6,5.6,0,0,0-4.56,2c-1.32,1.38-3.18,4.5-3.18,9.78V356.6h-3.9Z" transform="translate(-15.94 -241.98)"/><path class="cls-2" d="M655.78,349.88a12.84,12.84,0,0,1-11.94,7.56c-8.4,0-13-6.48-13-16s5.52-15.36,13-15.36,12.24,5.76,12.24,14.64v1.38H634.9v0.54c0,6.6,3.06,11.64,8.94,11.64s8.28-5,8.7-5.94Zm-3.72-11.28c0-4.92-2.7-9.42-8.22-9.42s-8.64,4.44-8.94,9.9h17.16V338.6Z" transform="translate(-15.94 -241.98)"/><path class="cls-2" d="M687.66,356.24a6.13,6.13,0,0,1-3.36,1,3.9,3.9,0,0,1-3.48-1.56,5.28,5.28,0,0,1-.84-3.36h-0.12c-0.36,1.08-2.88,5.16-8.76,5.16s-9.84-3.84-9.84-9.48,4.08-7.68,6.12-8.52a38.54,38.54,0,0,1,6.72-1.8,33,33,0,0,0,5.82-1.56v-1.26c0-3.66-2.1-5.58-6.9-5.58s-6.48,2.34-7.38,5.46l-3.24-1.44c1.14-4,4.14-7.08,10.86-7.08s10.56,2.82,10.56,9.06V351.8c0,1.68.84,2.16,1.68,2.16a3,3,0,0,0,1.44-.36h0.12ZM680,339h-0.12a43.38,43.38,0,0,1-5.64,1.56A33.32,33.32,0,0,0,669.3,342a6.2,6.2,0,0,0-4,6c0,4,2.58,6.24,6.42,6.24s8.28-2.88,8.28-7.92V339Z" transform="translate(-15.94 -241.98)"/><path class="cls-2" d="M706.89,356.18a10.62,10.62,0,0,1-5.34,1.26c-3.36,0-6.48-1.68-6.48-7V330h-5.64V327h5.64v-8.7l3.78-.9H699V327h7.56V330H699v20.22c0,3,1.44,3.78,3.48,3.78a7.51,7.51,0,0,0,3.48-.84h0.12Z" transform="translate(-15.94 -241.98)"/><path class="cls-2" d="M713,321v-6.72h3.9V321H713Zm0,35.64V327h3.9V356.6H713Z" transform="translate(-15.94 -241.98)"/><path class="cls-2" d="M733.07,356.6L722.57,327h4.08l6.72,19.68c1,2.76,2,6.12,2,6.12h0.12s1.08-3.36,2-6.12L744.29,327h4l-10.5,29.64h-4.68Z" transform="translate(-15.94 -241.98)"/><path class="cls-2" d="M775.76,349.88a12.84,12.84,0,0,1-11.94,7.56c-8.4,0-13-6.48-13-16s5.52-15.36,13-15.36,12.24,5.76,12.24,14.64v1.38H754.88v0.54c0,6.6,3.06,11.64,8.94,11.64s8.28-5,8.7-5.94ZM772,338.6c0-4.92-2.7-9.42-8.22-9.42s-8.64,4.44-8.94,9.9H772V338.6Z" transform="translate(-15.94 -241.98)"/></svg>